<svg height="512pt" viewBox="0 -14 512.00111 512" width="512pt" xmlns="http://www.w3.org/2000/svg"><path d="m193.6875 476.898438c-5.789062 0-11.371094-3.164063-14.195312-8.671876-15.816407-30.886718-3.972657-80.230468 1.085937-101.296874.507813-2.132813.953125-3.972657 1.183594-5.078126 1.816406-8.609374 10.269531-14.117187 18.875-12.304687 8.609375 1.816406 14.117187 10.265625 12.300781 18.875-.324219 1.542969-.789062 3.484375-1.378906 5.941406-3.5 14.578125-14.148438 58.945313-3.707032 79.339844 4.011719 7.832031.914063 17.433594-6.917968 21.441406-2.324219 1.191407-4.804688 1.753907-7.246094 1.753907zm0 0" fill="#efd176"/><path d="m352.402344 427.902344c-.984375 0-1.980469-.089844-2.984375-.28125-8.644531-1.636719-14.324219-9.972656-12.6875-18.617188 2.257812-11.914062-1.214844-16.105468-2.359375-17.484375-8.65625-10.453125-35.101563-10.453125-47.8125-10.453125-8.796875 0-15.929688-7.132812-15.929688-15.929687s7.132813-15.929688 15.929688-15.929688c18.917968 0 54.136718 0 72.347656 21.988281 9.40625 11.351563 12.476562 26.066407 9.128906 43.738282-1.445312 7.640625-8.128906 12.96875-15.632812 12.96875zm0 0" fill="#efd176"/><path d="m357.777344 282.71875c-17.582032 0-35.839844-4.625-52.117188-13.5625-7.714844-4.230469-10.535156-13.914062-6.300781-21.628906 4.230469-7.710938 13.917969-10.535156 21.628906-6.300782 6.582031 3.613282 29.972657 14.796876 54.585938 7.039063 16.101562-5.074219 29.105469-17.460937 38.644531-36.804687 3.890625-7.890626 13.445312-11.132813 21.332031-7.242188 7.890625 3.890625 11.132813 13.441406 7.242188 21.332031-13.34375 27.058594-33.277344 45.421875-57.640625 53.101563-8.652344 2.726562-17.917969 4.066406-27.375 4.066406zm0 0" fill="#efd176"/><path d="m71.796875 339.96875c-20.765625 0-40.730469-9.039062-59.390625-26.902344-6.355469-6.082031-6.578125-16.167968-.492188-22.523437 6.082032-6.355469 16.167969-6.574219 22.523438-.492188 13.261719 12.699219 26.074219 18.582031 39.113281 18.019531 16.332031-.714843 33.847657-11.613281 52.066407-32.394531 5.800781-6.613281 15.863281-7.277343 22.480468-1.476562 6.613282 5.800781 7.277344 15.863281 1.476563 22.480469-24.171875 27.570312-49.28125 42.113281-74.628907 43.21875-1.050781.046874-2.101562.070312-3.148437.070312zm0 0" fill="#efd176"/><path d="m147.101562 78.492188c25.964844 18.179687 35.804688 51.878906 39.292969 69.445312 1.265625 6.386719-3.046875 12.546875-9.480469 13.542969-17.703124 2.730469-52.734374 5.007812-78.699218-13.171875-25.964844-18.179688-35.804688-51.878906-39.292969-69.445313-1.265625-6.386719 3.050781-12.546875 9.484375-13.542969 17.699219-2.730468 52.730469-5.007812 78.695312 13.171876zm0 0" fill="#8ee2cf"/><path d="m138.222656 131.804688c-1.484375 0-2.984375-.441407-4.296875-1.359376l-31.140625-21.800781c-3.390625-2.378906-4.214844-7.054687-1.839844-10.445312 2.375-3.398438 7.050782-4.21875 10.445313-1.84375l31.140625 21.804687c3.394531 2.375 4.21875 7.050782 1.839844 10.445313-1.457032 2.082031-3.785156 3.199219-6.148438 3.199219zm0 0" fill="#6fce91"/><path d="m233.359375 63.28125c-18.179687 25.964844-15.902344 60.996094-13.171875 78.699219.992188 6.433593 7.15625 10.75 13.542969 9.480469 17.570312-3.484376 51.265625-13.328126 69.445312-39.292969 18.179688-25.964844 15.902344-60.992188 13.171875-78.695313-.996094-6.433594-7.15625-10.75-13.542968-9.484375-17.566407 3.488281-51.265626 13.332031-69.445313 39.292969zm0 0" fill="#8ee2cf"/><path d="m257.359375 110.796875c-1.484375 0-2.984375-.441406-4.296875-1.355469-3.390625-2.378906-4.214844-7.054687-1.839844-10.445312l21.804688-31.140625c2.375-3.394531 7.050781-4.21875 10.445312-1.84375 3.390625 2.375 4.21875 7.054687 1.839844 10.445312l-21.804688 31.140625c-1.457031 2.085938-3.785156 3.199219-6.148437 3.199219zm0 0" fill="#6fce91"/><path d="m234.171875 74.675781c5.503906 31.214844-11.363281 62-21.324219 76.890625-3.617187 5.410156-11.027344 6.714844-16.277344 2.871094-14.449218-10.585938-40.828124-33.746094-46.335937-64.960938-5.503906-31.214843 11.367187-62 21.324219-76.890624 3.617187-5.410157 11.027344-6.71875 16.277344-2.871094 14.449218 10.585937 40.832031 33.746094 46.335937 64.960937zm0 0" fill="#8ee2cf"/><path d="m195.496094 108.296875c-3.570313 0-6.738282-2.558594-7.378906-6.199219l-6.601563-37.4375c-.71875-4.078125 2.003906-7.96875 6.085937-8.6875 4.082032-.71875 7.96875 2.003906 8.6875 6.082032l6.601563 37.4375c.71875 4.082031-2.003906 7.972656-6.082031 8.691406-.441406.078125-.882813.113281-1.3125.113281zm0 0" fill="#6fce91"/><path d="m200.210938 127.492188c64.753906-11.417969 120.035156 31.417968 139.855468 107.550781 20.621094 79.195312.96875 144.445312-92.511718 160.929687-93.484376 16.480469-134.269532-38.113281-141.980469-119.582031-7.410157-78.324219 29.882812-137.480469 94.636719-148.898437zm0 0" fill="#f7ef87"/><g fill="#efd176"><path d="m162.691406 141.046875c-41.105468 23.984375-62.949218 73.730469-57.117187 135.34375 7.691406 81.242187 48.273437 135.753906 141.203125 119.707031-124.882813-49.089844-116.597656-178.851562-84.085938-255.050781zm0 0"/><path d="m206.164062 235.355469c-1.488281 0-2.988281-.4375-4.296874-1.355469-3.390626-2.375-4.214844-7.054688-1.839844-10.445312l9.375-13.390626c1.140625-1.632812 2.882812-2.742187 4.84375-3.085937 1.957031-.351563 3.972656.101563 5.601562 1.242187l13.390625 9.378907c3.394531 2.375 4.21875 7.050781 1.84375 10.445312-2.378906 3.394531-7.054687 4.214844-10.449219 1.839844l-7.246093-5.074219-5.074219 7.246094c-1.457031 2.085938-3.785156 3.199219-6.148438 3.199219zm0 0"/><path d="m271.25 223.878906c-1.484375 0-2.984375-.4375-4.296875-1.355468-3.390625-2.375-4.214844-7.050782-1.839844-10.445313l9.375-13.390625c1.140625-1.632812 2.882813-2.742188 4.84375-3.085938 1.957031-.34375 3.972657.101563 5.601563 1.242188l13.390625 9.378906c3.394531 2.375 4.21875 7.050782 1.84375 10.445313s-7.054688 4.214843-10.445313 1.839843l-7.25-5.074218-5.074218 7.246094c-1.457032 2.085937-3.785157 3.199218-6.148438 3.199218zm0 0"/><path d="m141.078125 246.832031c-1.484375 0-2.984375-.4375-4.296875-1.355469-3.390625-2.375-4.21875-7.054687-1.839844-10.445312l9.375-13.390625c2.378906-3.398437 7.054688-4.21875 10.445313-1.84375l13.394531 9.375c3.390625 2.378906 4.21875 7.054687 1.839844 10.445313-2.375 3.394531-7.050782 4.21875-10.445313 1.84375l-7.246093-5.074219-5.074219 7.246093c-1.460938 2.085938-3.789063 3.199219-6.152344 3.199219zm0 0"/><path d="m261.097656 356.597656c-1.488281 0-2.988281-.4375-4.296875-1.355468-3.394531-2.375-4.21875-7.054688-1.84375-10.445313l9.378907-13.390625c1.140624-1.632812 2.882812-2.738281 4.839843-3.085938 1.960938-.347656 3.976563.101563 5.605469 1.242188l13.390625 9.378906c3.394531 2.375 4.21875 7.050782 1.84375 10.445313-2.378906 3.394531-7.054687 4.21875-10.449219 1.839843l-7.246094-5.074218-5.074218 7.246094c-1.457032 2.085937-3.785156 3.199218-6.148438 3.199218zm0 0"/><path d="m196.011719 368.078125c-1.488281 0-2.988281-.441406-4.296875-1.359375-3.390625-2.375-4.21875-7.050781-1.839844-10.445312l9.375-13.390626c1.140625-1.628906 2.882812-2.738281 4.84375-3.085937 1.957031-.34375 3.972656.101563 5.601562 1.242187l13.394532 9.378907c3.390625 2.375 4.21875 7.050781 1.839844 10.445312-2.375 3.394531-7.054688 4.21875-10.445313 1.839844l-7.246094-5.074219-5.074219 7.25c-1.460937 2.082032-3.789062 3.199219-6.152343 3.199219zm0 0"/></g><path d="m182.972656 308.257812c-2.15625-12.246093-16.371094-19.976562-31.746094-17.265624-15.375 2.710937-26.089843 14.835937-23.933593 27.078124 2.160156 12.246094 16.375 19.972657 31.75 17.261719 15.375-2.710937 26.089843-14.832031 23.929687-27.074219zm0 0" fill="#eda1ab"/><path d="m278.230469 291.445312c2.160156 12.246094 16.375 19.972657 31.75 17.265626 15.375-2.710938 26.089843-14.835938 23.929687-27.082032-2.15625-12.242187-16.371094-19.972656-31.746094-17.261718-15.375 2.710937-26.089843 14.835937-23.933593 27.078124zm0 0" fill="#eda1ab"/><path d="m155.0625 171.214844-25.378906 4.476562c-10.660156 1.878906-16.875 13.113282-12.800782 23.144532l2.558594 6.304687c4.304688 10.601563 15.429688 16.753906 26.699219 14.765625l8.582031-1.511719c11.265625-1.988281 19.617188-11.574219 20.035156-23.007812l.25-6.800781c.394532-10.820313-9.285156-19.25-19.945312-17.371094zm0 0" fill="#4e5660"/><path d="m257.59375 153.136719 25.378906-4.476563c10.660156-1.878906 20.339844 6.550782 19.945313 17.371094l-.25 6.800781c-.421875 11.433594-8.769531 21.023438-20.039063 23.007813l-8.578125 1.511718c-11.269531 1.988282-22.394531-4.164062-26.699219-14.765624l-2.5625-6.308594c-4.070312-10.027344 2.140626-21.261719 12.804688-23.140625zm0 0" fill="#4e5660"/><path d="m405.804688 156.253906-28.59375-20.023437-21.484376 30.683593 28.59375 20.023438c3.730469 2.609375 5.808594 7 5.464844 11.539062l-.425781 5.566407c-.566406 7.453125 2.84375 14.652343 8.964844 18.941406l49.652343 34.765625c11.023438 7.71875 26.21875 5.042969 33.9375-5.984375l18.191407-25.976563c7.71875-11.023437 5.042969-26.21875-5.984375-33.9375l-49.652344-34.765624c-6.125-4.289063-14.054688-5.027344-20.867188-1.945313l-5.082031 2.296875c-4.148437 1.878906-8.980469 1.429688-12.714843-1.183594zm0 0" fill="#e1b89a"/><path d="m355.011719 119.960938-22.164063 31.65625c-4.976562 7.101562-3.25 16.890624 3.851563 21.863281 7.105469 4.972656 16.890625 3.246093 21.863281-3.855469l22.167969-31.65625c4.972656-7.101562 3.246093-16.890625-3.855469-21.863281-7.101562-4.972657-16.890625-3.246094-21.863281 3.855469zm0 0" fill="#d2996f"/><path d="m490.1875 189.097656-27.496094 39.269532c-2.101562 3-6.238281 3.730468-9.238281 1.628906l-27.511719-19.265625c-3-2.101563-3.730468-6.234375-1.628906-9.234375l27.5-39.273438zm0 0" fill="#fcf2d0"/><path d="m454.664062 213.375c-1.484374 0-2.984374-.4375-4.292968-1.355469-3.394532-2.375-4.21875-7.054687-1.84375-10.445312l7.832031-11.191407c2.378906-3.394531 7.054687-4.214843 10.445313-1.839843 3.394531 2.375 4.21875 7.050781 1.84375 10.445312l-7.832032 11.1875c-1.460937 2.085938-3.789062 3.199219-6.152344 3.199219zm0 0" fill="#8ee2cf"/><path d="m416.226562 192.320312c-4.144531 0-7.503906-3.359374-7.503906-7.5v-6.636718c0-4.144532 3.359375-7.5 7.503906-7.5 4.140626 0 7.5 3.355468 7.5 7.5v6.636718c0 4.140626-3.359374 7.5-7.5 7.5zm0 0" fill="#d2996f"/><path d="m256.207031 269.34375c-4.09375-.667969-7.9375 2.136719-8.585937 6.226562-1.488282 9.335938-8.746094 16.710938-18.0625 18.355469-9.316406 1.640625-18.660156-2.804687-23.25-11.070312-2.011719-3.621094-6.574219-4.929688-10.199219-2.917969-3.621094 2.011719-4.925781 6.578125-2.914063 10.199219 6.628907 11.9375 19.171876 19.128906 32.503907 19.128906 2.140625 0 4.304687-.1875 6.464843-.566406 15.613282-2.753907 27.777344-15.121094 30.269532-30.769531.652344-4.09375-2.136719-7.9375-6.226563-8.585938zm242.214844-83.636719-3.925781-2.75c-.003906-.003906-.003906-.003906-.003906-.003906-.003907 0-.003907 0-.007813-.003906l-45.714844-32.007813c-8.25-5.777344-19.082031-6.789062-28.257812-2.636718l-5.085938 2.300781c-1.726562.78125-3.765625.589843-5.320312-.496094l-20.125-14.09375c1.132812-3.535156 1.398437-7.316406.738281-11.078125-1.078125-6.101562-4.464844-11.421875-9.542969-14.976562-5.074219-3.550782-11.230469-4.917969-17.332031-3.839844-6.101562 1.074218-11.421875 4.460937-14.976562 9.539062l-22.164063 31.65625c-3.554687 5.074219-4.917969 11.230469-3.84375 17.335938 1.074219 6.101562 4.464844 11.417968 9.539063 14.972656 3.945312 2.761719 8.539062 4.203125 13.257812 4.203125 1.351562 0 2.71875-.121094 4.078125-.359375 3.761719-.664062 7.21875-2.210938 10.15625-4.484375l20.128906 14.097656c1.550781 1.085938 2.429688 2.9375 2.285157 4.828125l-.421876 5.5625c-.742187 9.765625 3.640626 19.3125 11.460938 25.148438-5.929688 5.96875-12.636719 10.164062-20.023438 12.492187-7.34375 2.3125-15.28125 2.902344-23.648437 1.777344-.710937-3.203125-1.492187-6.449219-2.347656-9.738281-7.550781-28.996094-20.539063-54.382813-37.601563-73.613282-1.1875-4.84375-3.839844-9.246093-7.707031-12.609374-3.5-3.050782-7.710937-5-12.160156-5.71875-1.191407-.886719-2.390625-1.753907-3.605469-2.589844 9.457031-6.34375 17.195312-13.757813 23.070312-22.148438 19.554688-27.929687 17.4375-64.707031 14.4375-84.144531-.792968-5.152344-3.585937-9.636719-7.859374-12.628906-4.269532-2.992188-9.441407-4.078125-14.554688-3.066407-17.242188 3.425782-47.257812 12.261719-67.402344 34.042969-10.929687-21.964843-29.640625-38.195312-41.671875-47.007812-4.207031-3.082031-9.351562-4.277344-14.488281-3.375-5.136719.90625-9.5625 3.792969-12.457031 8.125-8.292969 12.394531-20.328125 34.046875-23.085938 58.429687-26.378906-13.578125-57.605469-11.621094-74.980469-8.9375-5.152343.792969-9.636718 3.585938-12.628906 7.859375-2.992187 4.269531-4.078125 9.441407-3.0625 14.554688.695313 3.515625 1.519532 7.0625 2.449219 10.542969.894531 3.355468 3.929687 5.566406 7.242187 5.566406.640626 0 1.292969-.082032 1.9375-.253906 4.003907-1.070313 6.382813-5.179688 5.3125-9.179688-.84375-3.171875-1.59375-6.398438-2.230468-9.597656-.285156-1.433594.28125-2.515625.640625-3.03125s1.183593-1.414063 2.628906-1.636719c39.054687-6.027344 61.890625 4.234375 72.425781 11.335937.195313 2.230469.480469 4.464844.875 6.707032 2.519532 14.292968 9.175782 28.269531 19.796875 41.664062-10.6875 5.695313-20.308593 13.011719-28.707031 21.84375-12.273438-2.042968-22.835938-6.109375-31.421875-12.121094-8.328125-5.832031-15.601563-14.050781-21.609375-24.429687-2.078125-3.585937-6.664062-4.804687-10.25-2.730469-3.582031 2.074219-4.808594 6.664063-2.730469 10.25 7.109375 12.277344 15.851563 22.105469 25.984375 29.195313 8.390625 5.878906 18.199219 10.199219 29.253906 12.925781-.851562 1.199219-1.683593 2.425781-2.503906 3.667969-3.933594 2.195312-7.222656 5.464843-9.46875 9.53125-2.480468 4.480469-3.46875 9.527343-2.929687 14.484375-9.457031 23.90625-12.980469 52.207031-10.15625 82.035156.414062 4.355469.917969 8.601562 1.507812 12.746094-9.292969 6.761718-18.15625 10.375-26.382812 10.734375-10.917969.472656-21.910157-4.746094-33.609375-15.941407-4.519532-4.328124-10.457032-6.621093-16.710938-6.5-6.257812.136719-12.085937 2.699219-16.417968 7.222657-8.933594 9.332031-8.605469 24.191406.722656 33.128906 20.09375 19.230469 41.820312 28.984375 64.582031 28.984375 1.144531 0 2.3125-.027344 3.476563-.078125 12.285156-.539063 24.578124-3.972656 36.644531-10.21875 8.410156 20.441406 20.261719 36.554687 35.492187 48.15625 5.972656 4.550781 12.4375 8.351563 19.363282 11.429687-5.019532 32.0625-2.996094 57.238282 6.042968 74.886719 4.027344 7.867188 12.027344 12.753907 20.867188 12.753907 3.6875 0 7.375-.890626 10.667968-2.578126 11.496094-5.890624 16.0625-20.035156 10.175782-31.535156-2.992188-5.835937-5.558594-18.160156-1.757813-43.9375 1.089844.023438 2.179688.054688 3.285157.054688 10.328124 0 21.273437-1.015625 32.796874-3.046875 17.722657-3.125 33.304688-8.042969 46.703126-14.699219 23.691406.621094 30.871093 5.027344 33.039062 7.640625 2.058594 2.488281 1.363281 8.152344.765625 11.308594-2.402344 12.695312 5.96875 24.976562 18.664063 27.382812 1.441406.273438 2.914062.410157 4.378906.410157 2.410156 0 4.796875-.371094 7.09375-1.105469 3.945312-1.261719 6.121094-5.480469 4.859375-9.425781-1.257813-3.945313-5.476563-6.125-9.425781-4.863282-1.316407.421875-2.738282.503906-4.113282.246094-4.570312-.867188-7.582031-5.285156-6.714844-9.851562 1.957032-10.34375.664063-18.085938-3.953124-23.667969-3.175782-3.832031-8.996094-8.597657-23.765626-11.210938 5.28125-4.199219 10.039063-8.804687 14.257813-13.816406 9.710937 3.179687 17.265625 7.96875 22.488281 14.273437 5.316406 6.417969 8.230469 14.253907 8.65625 23.289063.191406 4.019531 3.507813 7.148437 7.488282 7.148437.117187 0 .238281-.003906.359374-.011718 4.136719-.195313 7.332032-3.707032 7.136719-7.84375-.585937-12.359375-4.652343-23.175782-12.089843-32.152344-6.210938-7.5-14.601563-13.320312-25-17.386719 9.890624-16.566406 14.996093-36.242187 15.324218-58.839843.929688.023437 1.855469.035156 2.769532.035156 10.371093 0 20.339843-1.484375 29.632812-4.410156 17.167969-5.414063 32.136719-15.53125 44.589844-30.089844l11.675781 8.179687c5.550781 3.886719 11.921875 5.75 18.234375 5.75 10.054688 0 19.957031-4.734375 26.148438-13.578125l18.191406-25.980468c10.082031-14.390626 6.570312-34.300782-7.824219-44.378907zm-423.804687 146.699219c-.945313.042969-1.890626.0625-2.820313.0625-18.761719 0-37.003906-8.351562-54.203125-24.820312-3.359375-3.214844-3.476562-8.5625-.261719-11.917969 1.558594-1.625 3.652344-2.550781 5.90625-2.597657 2.25-.039062 4.386719.78125 6.011719 2.339844 14.808594 14.171875 29.40625 20.742188 44.628906 20.09375 9.3125-.410156 18.886719-3.625 28.578125-9.578125 1.253907 5.882813 2.707031 11.523438 4.363281 16.910157-10.714843 5.839843-21.523437 9.039062-32.203124 9.507812zm217.546874-174.167969c2.175782 1.898438 3.363282 4.636719 3.257813 7.519531l-.25 6.800782c-.289063 7.847656-6.109375 14.53125-13.84375 15.898437l-8.582031 1.511719c-7.730469 1.355469-15.488282-2.929688-18.441406-10.203125l-2.5625-6.308594c-1.0625-2.613281-.90625-5.515625.40625-8.003906.269531-.359375.507812-.742187.707031-1.148437 1.441406-1.988282 3.585937-3.347657 6.042969-3.78125l25.375-4.476563c.558593-.097656 1.113281-.144531 1.667968-.144531 2.269532 0 4.472656.8125 6.222656 2.335937zm-50.605468-84.863281c-.394532-2.238281-.894532-4.433594-1.46875-6.589844 16.683594-23.035156 47.289062-32.085937 64.175781-35.4375 1.4375-.28125 2.515625.277344 3.03125.640625.515625.359375 1.414063 1.183594 1.636719 2.628907 2.65625 17.210937 4.644531 49.617187-11.902344 73.25-6.011719 8.585937-14.542969 16.015624-25.378906 22.132812-10.914063-5.425781-22.457032-9.007812-34.445313-10.707031 5.394531-16.21875 6.871094-31.628907 4.351563-45.917969zm-83.9375 14.800781c-2.148438-12.195312-2.390625-37.691406 20.171875-71.421875.8125-1.214844 1.972656-1.578125 2.59375-1.6875.621093-.109375 1.835937-.164062 3.019531.699219 32.734375 23.980469 41.226562 48.019531 43.378906 60.210937 2.261719 12.824219.542969 26.996094-5.074218 42.179688-7.480469-.054688-15.09375.589844-22.800782 1.949219-7.710937 1.359375-15.082031 3.359375-22.089844 5.964843-10.476562-12.34375-16.9375-25.070312-19.199218-37.894531zm43.890625 46.703125c8.332031-1.472656 16.535156-1.992187 24.539062-1.582031h.003907c14.078124.71875 27.550781 4.328125 40.050781 10.722656l-9.816407 1.730469h.003907c-5.539063.976562-10.46875 3.773438-14.097657 7.890625-9.441406.449219-21.691406 1.40625-36.660156 4.042969-14.972656 2.640625-26.808594 5.933594-35.832031 8.738281-4.820313-2.628906-10.410156-3.570313-15.945313-2.59375l-9.816406 1.730469c14.996094-16.128906 34.589844-26.628906 57.570313-30.679688zm-77.191407 52.957032c1.394532-2.523438 3.824219-4.257813 6.664063-4.757813l25.378906-4.476563c2.472657-.433593 4.972657.117188 7.015625 1.515626.300782.285156.625.535156.964844.765624 2.113281 1.886719 3.269531 4.585938 3.167969 7.425782l-.25 6.800781c-.289063 7.851563-6.109375 14.535156-13.84375 15.898437l-8.582031 1.511719c-7.734376 1.359375-15.488282-2.925781-18.445313-10.203125l-2.5625-6.304687c-1.082031-2.671875-.90625-5.652344.492187-8.175781zm73.195313 280.632812c-1.207031.617188-2.492187.929688-3.832031.929688-3.183594 0-6.066406-1.757813-7.515625-4.589844-7.324219-14.300782-8.980469-35.449219-4.992188-62.898438 5.308594 1.476563 10.84375 2.59375 16.605469 3.339844-3.402344 23.738281-2.289062 40.773438 3.394531 51.875 2.117188 4.136719.476563 9.226562-3.660156 11.34375zm127.871094-124.851562c-1.070313 1.671874-2.207031 3.292968-3.402344 4.875-.019531.027343-.039063.054687-.0625.082031-15.394531 20.410156-40.8125 33.863281-75.671875 40.011719-37.617188 6.632812-67.808594 1.523437-89.746094-15.1875-14.707031-11.203126-25.851562-27.554688-33.355468-48.84375-.109376-.457032-.261719-.90625-.464844-1.347657-3.203125-9.371093-5.722656-19.675781-7.535156-30.914062-.023438-.222657-.058594-.445313-.101563-.667969-.8125-5.125-1.484375-10.4375-2.003906-15.941406-2.011719-21.265625-.570313-41.597656 4.164062-59.765625 6.003907 7.40625 15.152344 11.851562 24.789063 11.851562 1.804687 0 3.625-.152343 5.445312-.476562l8.582032-1.511719c14.652343-2.582031 25.683593-15.25 26.230468-30.117188l.25-6.804687c.128906-3.503906-.492187-6.925781-1.765625-10.078125 7.515625-2.152344 16.605469-4.421875 27.402344-6.324219 10.792969-1.902343 20.113281-2.878906 27.914063-3.429687-.117188 3.394531.46875 6.824218 1.789062 10.074218l2.5625 6.308594c4.902344 12.070313 16.78125 19.808594 29.503906 19.804688 1.800782 0 3.625-.152344 5.441406-.476563l8.582032-1.511719c11.542968-2.035156 20.835937-10.328124 24.527344-21.027343 10.660156 15.453125 18.96875 34.0625 24.347656 54.734375 1.234375 4.734375 2.300781 9.367187 3.21875 13.902344.003906.027343.007812.050781.015625.078124 2.199219 10.890626 3.488281 21.195313 3.867187 30.898438-.023437.460938-.003906.917969.054688 1.363281.730468 23.9375-4.128906 44.171875-14.578125 60.441407zm128.265625-170.945313 26.089844 18.265625-22.699219 32.417969-26.085938-18.269531zm-100.890625-7.835937v.003906c-.003907 0-.003907 0-.003907 0l-.339843.484375c-2.589844 3.703125-7.710938 4.605469-11.414063 2.015625-1.796875-1.257813-2.992187-3.136719-3.371094-5.292969-.382812-2.15625.101563-4.332031 1.355469-6.125l22.167969-31.65625c2.589844-3.703125 7.714844-4.605469 11.417969-2.011719 3.703125 2.589844 4.605469 7.714844 2.011719 11.417969zm30.136719 106.660156c-8.765626 2.765625-18.289063 3.996094-28.347657 3.636718-.398437-5.476562-1.054687-11.105468-1.960937-16.886718 1.734375.121094 3.457031.207031 5.164062.207031 6.945313 0 13.660156-1.011719 20.074219-3.035156 10.515625-3.3125 19.882813-9.386719 27.929687-18.074219l13.882813 9.722656c-10.414063 11.808594-22.742187 20.019532-36.742187 24.429688zm111.0625-50.011719-18.191407 25.980469c-5.332031 7.617187-15.871093 9.476562-23.488281 4.144531l-49.652344-34.769531c-3.9375-2.753906-6.152344-7.4375-5.789062-12.230469l.421875-5.5625c.542969-7.148437-2.765625-14.140625-8.640625-18.253906l-19.269532-13.496094 12.878907-18.394531 19.273437 13.496094c5.871094 4.109374 13.578125 4.832031 20.105469 1.871093l5.085937-2.296875c4.375-1.980468 9.539063-1.5 13.472657 1.253906l1.199219.839844-23.199219 33.128906c-2.164063 3.089844-2.996094 6.84375-2.339844 10.558594.65625 3.71875 2.71875 6.957032 5.8125 9.125l27.511719 19.265625c2.402344 1.679688 5.203125 2.558594 8.078125 2.558594.820312 0 1.652343-.070313 2.480469-.21875 3.71875-.65625 6.960937-2.71875 9.125-5.8125l23.058593-32.933594c5.824219 5.660157 6.871094 14.882813 2.066407 21.746094zm-201.511719 39.59375c-.71875-4.082031-4.609375-6.800781-8.6875-6.085937-4.082031.71875-6.804688 4.609374-6.085938 8.691406l.867188 4.914062c.640625 3.640625 3.804687 6.199219 7.378906 6.199219.433594 0 .871094-.039063 1.3125-.117187 4.078125-.71875 6.800781-4.605469 6.082031-8.6875zm-121.429688 4.003906c-.71875-4.078125-4.605469-6.808593-8.6875-6.085937-4.078125.71875-6.804687 4.609375-6.085937 8.6875l3.84375 21.800781c.644531 3.640625 3.808594 6.199219 7.378906 6.199219.429688 0 .871094-.039063 1.308594-.117188 4.082031-.71875 6.804687-4.605468 6.085937-8.6875zm0 0"/></svg>